# xmcd CD database file
# Copyright (C) 1993-1998 Ti Kan
# 
# Track frame offsets:
#     182
#     16982
#     42452
#     59147
#     91850
# 
# Disc length: 1461 seconds
# 
# Revision: 1
# Processed by: cddbd v1.4b41PL1 Copyright (c) Steve Scherf et al.
# Submitted via: DiscPlay 4.0.4
# 
DISCID=3d05b305
DTITLE=Sweet Sensation - Never Let You Go
DYEAR=1900
DGENRE=
TTITLE0=Never Let You Go (Single Edit)
TTITLE1=Never Let You Go (Extended Remix)
TTITLE2=Never Let You Go (Spanish Version)
TTITLE3=Never Let You Go (Charlie Dee Never See Never Dubb)
TTITLE4=Never Let You Go (Edited Version)
EXTD=
EXTT0=
EXTT1=
EXTT2=
EXTT3=
EXTT4=
PLAYORDER=
